<svg preserveAspectRatio="xMidYMid" xmlns="http://www.w3.org/2000/svg" height="5em" viewBox="0 0 480 480">
    

            <path d="m80 368c-1.140625.003906-2.269531-.242188-3.304688-.71875-1.933593-.875-3.445312-2.480469-4.195312-4.46875-.75-1.984375-.679688-4.191406.195312-6.125l80-176c1.621094-3.5625 5.582032-5.433594 9.359376-4.414062l199.929687 53.832031 46.175781-207.839844c.957032-4.316406 5.234375-7.039063 9.550782-6.082031 4.316406.960937 7.039062 5.234375 6.082031 9.550781l-48 216c-.472657 2.136719-1.796875 3.980469-3.667969 5.113281-1.867188 1.132813-4.121094 1.449219-6.230469.878906l-201.414062-54.230468-77.199219 169.816406c-1.300781 2.855469-4.144531 4.6875-7.28125 4.6875zm0 0" fill="#60a2d7"/>


            <g fill="#5f7bad">
              <path d="m184 184c0 13.253906-10.746094 24-24 24s-24-10.746094-24-24 10.746094-24 24-24 24 10.746094 24 24zm0 0"/>
              <path d="m392 240c0 13.253906-10.746094 24-24 24s-24-10.746094-24-24 10.746094-24 24-24 24 10.746094 24 24zm0 0"/>
              <path d="m440 24c0 13.253906-10.746094 24-24 24s-24-10.746094-24-24 10.746094-24 24-24 24 10.746094 24 24zm0 0"/>
              <path d="m104 360c0 13.253906-10.746094 24-24 24s-24-10.746094-24-24 10.746094-24 24-24 24 10.746094 24 24zm0 0"/>
            </g>

            <path d="m216 312c-.710938-.003906-1.417969-.097656-2.105469-.28125l-176-48c-4.261719-1.160156-6.777343-5.558594-5.613281-9.824219 1.160156-4.261719 5.558594-6.777343 9.824219-5.613281l169.238281 46.160156 61.28125-145.546875c.976562-2.320312 2.992188-4.046875 5.4375-4.65625l160-40c4.242188-.953125 8.46875 1.652344 9.519531 5.871094 1.050781 4.214844-1.453125 8.5-5.644531 9.652344l-156.113281 39.03125-62.449219 148.3125c-1.25 2.964843-4.15625 4.894531-7.375 4.894531zm0 0" fill="#ee638c"/>

                        <path d="m472 456h-464c-4.417969 0-8-3.582031-8-8s3.582031-8 8-8h464c4.417969 0 8 3.582031 8 8s-3.582031 8-8 8zm0 0" fill="#92aeba"/>



</svg>