            <svg viewBox="0 0 512 512" preserveAspectRatio="xMidYMid" height="5em" xmlns="http://www.w3.org/2000/svg">
            <g>
              <rect x="176.552" y="75.034" style="fill:#464655;" width="17.655" height="44.138"/>
              <rect x="317.793" y="75.034" style="fill:#464655;" width="17.655" height="44.138"/>
            </g>
            <path style="fill:#334A5E;" d="M467.862,472.276H44.138c-14.626,0-26.483-11.857-26.483-26.483V278.069h476.69v167.724 C494.345,460.419,482.488,472.276,467.862,472.276z"/>

            <path style="fill:#707487;" d="M335.448,87.462c-1.987,0-4.009-0.337-5.983-1.047c-20.366-7.341-46.456-11.38-73.465-11.38 s-53.099,4.039-73.465,11.38c-9.155,3.297-19.288-1.457-22.595-10.63c-3.302-9.173,1.452-19.288,10.63-22.595 c24.452-8.81,53.996-13.465,85.431-13.465s60.979,4.655,85.431,13.465c9.176,3.306,13.931,13.422,10.629,22.595 C349.465,82.983,342.681,87.462,335.448,87.462z"/>
            <path style="fill:#40596B;" d="M388.414,348.69H123.586C55.331,348.69,0,293.358,0,225.103v-88.276 c0-14.626,11.857-26.483,26.483-26.483h459.034c14.626,0,26.483,11.857,26.483,26.483v88.276 C512,293.358,456.669,348.69,388.414,348.69z"/>
            <path style="fill:#FFC36E;" d="M150.069,384h-17.655c-4.875,0-8.828-3.953-8.828-8.828V348.69h35.31v26.483 C158.897,380.047,154.944,384,150.069,384z"/>
            <circle style="fill:#FFD782;" cx="141.241" cy="331.034" r="26.483"/>
            <path style="fill:#FFC36E;" d="M379.586,384h-17.655c-4.875,0-8.828-3.953-8.828-8.828V348.69h35.31v26.483 C388.414,380.047,384.461,384,379.586,384z"/>
            <circle style="fill:#FFD782;" cx="370.759" cy="331.034" r="26.483"/>
          </svg>