<svg
    xmlns:dc="http://purl.org/dc/elements/1.1/"
    xmlns:cc="http://creativecommons.org/ns#"
    xmlns:rdf="http://www.w3.org/1999/02/22-rdf-syntax-ns#"
    xmlns:svg="http://www.w3.org/2000/svg"
    xmlns="http://www.w3.org/2000/svg"
    xmlns:sodipodi="http://sodipodi.sourceforge.net/DTD/sodipodi-0.dtd"
    xmlns:inkscape="http://www.inkscape.org/namespaces/inkscape"
    version="1.1"
    id="svg2"
    xml:space="preserve"
    height="6em"
    viewBox="0 0 83.133331 83.133331"
    sodipodi:docname="Maple2015_logo.eps">
    <metadata
        id="metadata8">
        <rdf:RDF>
            <cc:Work
                rdf:about="">
                <dc:format>image/svg+xml</dc:format>
                <dc:type
                    rdf:resource="http://purl.org/dc/dcmitype/StillImage" />
            </cc:Work>
        </rdf:RDF>
    </metadata>
    <defs
        id="defs6">
        <clipPath
            clipPathUnits="userSpaceOnUse"
            id="clipPath38">
            <path
                d="m 612.48,183.586 c -0.039,0.066 -0.089,0.144 -0.148,0.227 -1.254,1.902 -4.238,4.64 -8.855,8.132 -2.239,1.696 -5.262,3.52 -8.762,5.633 -12.699,7.668 -31.891,19.262 -55.504,48.184 -0.672,0.816 -1.277,1.644 -1.82,2.465 -3.801,5.75 -5.067,12.32 -3.676,19 3.551,17.05 22.988,30.109 25.195,31.543 l 0.278,0.179 0.281,0.149 c 2.535,1.312 5.336,3.441 6.562,4.875 -2.234,1.39 -9.937,4.613 -34.293,5.804 l -3.504,0.164 c -83.324,3.918 -93.015,8.633 -96.613,14.079 -1.433,2.257 -5.801,9.136 12.285,34.46 4.309,6.043 57.805,83.872 63.004,92.145 11.125,17.715 11.453,25.328 10.754,26.535 -0.019,0.016 -0.668,0.457 -2.684,0.457 -4.074,0 -13.726,-1.812 -35.058,-12.644 -1.496,-0.762 -3.027,-1.133 -4.516,-1.133 -3.16,0 -6.129,1.668 -8.203,4.805 -5.234,7.933 -6.023,27.464 -6.965,61.312 -0.804,28.891 -1.804,64.844 -8.367,74.785 -0.363,0.551 -0.641,0.832 -0.687,0.903 -0.008,0.015 -0.012,0.023 -0.004,0.023 v 0 c -0.356,0.117 -0.766,0.172 -1.235,0.172 -10.172,0 -45.636,-26.684 -65.09,-41.32 -32.531,-24.477 -48.406,-35.633 -58.214,-35.633 -1.664,0 -3.153,0.32 -4.52,0.953 -6.191,2.859 -10.851,9.453 -15.355,15.824 -2.453,3.469 -7.02,9.93 -8.77,10.399 -0.035,-0.008 -3.555,-1.356 -9.094,-16.129 -6.656,-17.735 -13.015,-42.008 -18.629,-63.422 -11.824,-45.125 -16.718,-61.211 -25.203,-64.496 -1.05,-0.411 -2.136,-0.61 -3.222,-0.61 -1.696,0 -3.371,0.492 -4.868,1.461 -3.796,2.457 -9.015,9.461 -22.964,28.86 -13.399,18.636 -44.395,61.738 -54.754,63.714 -0.211,-0.472 -0.508,-1.328 -0.75,-2.781 -4.617,-27.683 -6.723,-40.32 -27.207,-42.094 -3.293,-0.285 -10.078,-0.316 -19.461,-0.363 -58.9729,-0.269 -91.5002,-3.394 -96.7151,-9.289 0.0899,-0.922 0.7774,-3.934 5.2813,-10.758 6.8203,-10.324 18.6484,-23.84 30.0937,-36.914 11.4375,-13.07 22.2422,-25.414 28.6094,-35.058 3.5469,-5.368 5.4453,-9.454 6.0078,-12.989 0.9492,-2.363 1.2812,-5.617 -0.0703,-9.101 -3.1133,-7.996 -13.8945,-14.324 -32.9414,-19.321 0.0625,-0.21 0.2148,-0.582 0.5703,-1.121 1.7109,-2.589 8.6484,-9.664 36.1445,-19.429 8.9961,-3.2 15.9848,-5.555 21.4418,-7.399 15.492,-5.23 20.168,-6.812 23.632,-12.062 1.344,-2.035 2.102,-4.172 3.063,-6.871 l 0.785,-2.192 c 4.406,-11.976 -8.879,-22.222 -22.945,-33.074 -8.328,-6.422 -17.7697,-13.703 -20.3869,-19.363 -3.3828,-7.328 -3.1094,-11.367 -2.8633,-12.692 l 0.3086,0.164 0.2265,-1.613 c 0.0313,-0.058 0.0664,-0.117 0.1133,-0.183 0.586,-0.887 2.5235,-3.075 7.9098,-4.29 2.481,-0.562 7.43,-1.21 13.164,-1.968 23.899,-3.16 68.379,-9.035 91.727,-27.485 4.309,-3.406 7.48,-6.687 9.688,-10.031 4.339,-6.57 4.984,-13.621 1.871,-20.344 L 165.5,34.1406 c -0.637,-5.2265 -0.516,-13.6797 1.75,-17.1133 0.586,-0.8828 1.02,-1.039 1.785,-1.0585 0.352,-0.0079 0.703,-0.0118 1.051,-0.0118 9.695,0 18.152,3.043 21.793,4.5743 l 54.16,115.0817 0.934,0.867 c 0.5,0.461 10.215,9.29 24.015,9.29 3.207,0 6.641,-0.481 10.227,-1.653 4.476,-1.199 58.269,-16.445 91.055,-65.1873 l 0.175,-0.2578 0.137,-0.2617 c 0.055,-0.0938 0.441,-0.7813 1.074,-1.7461 2.625,-3.9766 4.871,-5.6953 5.778,-6.0508 0.824,0.6875 4.472,4.6758 7.074,22.9961 -0.957,25.4066 0.344,56.5356 11.773,62.0316 3.981,1.91 8.844,2.48 13.231,2.48 4.828,0 9.078,-0.691 10.937,-1.047 6.274,-1.187 20.555,-9.582 41.625,-22.261 4.91,-2.954 9.524,-5.727 13.313,-7.934 9.203,-5.352 14.117,-7.551 16.687,-8.438 -0.004,0.582 -0.015,1.18 -0.019,1.707 -0.02,0.934 -0.035,1.903 -0.028,2.907 0.016,2.656 -0.16,6.433 -0.343,10.429 -0.965,20.575 -1.11,31.442 6.64,34.301 1.379,0.508 3.035,0.703 6.207,0.703 2.461,0 5.836,-0.117 10.703,-0.3 6.289,-0.235 14.383,-0.536 23.164,-0.536 17.59,0 37.942,1.211 52.071,6.602 5.301,2.023 17.304,6.601 20.011,9.332 z"
                id="path36" />
        </clipPath>
        <radialGradient
            fx="0"
            fy="0"
            cx="0"
            cy="0"
            r="1"
            gradientUnits="userSpaceOnUse"
            gradientTransform="matrix(302.681,0,0,-302.681,313.804,310.899)"
            spreadMethod="pad"
            id="radialGradient46">
            <stop
                style="stop-opacity:1;stop-color:#3681bc"
                offset="0"
                id="stop40" />
            <stop
                style="stop-opacity:1;stop-color:#225083"
                offset="0.539877"
                id="stop42" />
            <stop
                style="stop-opacity:1;stop-color:#193352"
                offset="1"
                id="stop44" />
        </radialGradient>
    </defs>
    <sodipodi:namedview
        pagecolor="#ffffff"
        bordercolor="#666666"
        borderopacity="1"
        objecttolerance="10"
        gridtolerance="10"
        guidetolerance="10"
        inkscape:pageopacity="0"
        inkscape:pageshadow="2"
        inkscape:window-width="640"
        inkscape:window-height="480"
        id="namedview4" />
    <g
        id="g10"
        inkscape:groupmode="layer"
        inkscape:label="ink_ext_XXXXXX"
        transform="matrix(1.3333333,0,0,-1.3333333,0,83.133333)">
        <g
            id="g12"
            transform="scale(0.1)">
            <path
                d="m 469.738,555.93 c 79.965,-51.914 133.004,-141.938 133.004,-244.172 0,-33.781 -5.847,-66.207 -16.48,-96.399 5.222,-3.64 9.914,-6.523 13.894,-8.929 1.477,-0.891 2.805,-1.707 4.117,-2.524 12.438,33.625 19.25,69.957 19.25,107.852 0,115.027 -62.66,215.629 -155.593,269.656 0.804,-7.488 1.379,-15.973 1.808,-25.484"
                style="fill:#d2d3d2;fill-opacity:1;fill-rule:nonzero;stroke:none"
                id="path14" />
            <path
                d="M 558.488,157.766 C 507.008,75.582 415.688,20.7813 311.762,20.7813 c -35.102,0 -68.77,6.246 -99.957,17.6914 L 202.941,19.6328 C 236.84,6.96484 273.5,0 311.762,0 c 117.316,0 219.66,65.1563 272.859,161.156 -7.426,-1.672 -16.098,-2.801 -26.133,-3.39"
                style="fill:#d2d3d2;fill-opacity:1;fill-rule:nonzero;stroke:none"
                id="path16" />
            <path
                d="M 165.879,60.1523 C 79.2109,110.602 20.7813,204.457 20.7813,311.758 c 0,32.301 5.371,63.355 15.1289,92.41 C 30.3945,410.516 25.1328,416.754 20.457,422.66 7.28516,388.18 0,350.813 0,311.758 0,196.047 63.4141,94.9375 157.266,41.1445 l 8.613,19.0078"
                style="fill:#d2d3d2;fill-opacity:1;fill-rule:nonzero;stroke:none"
                id="path18" />
            <path
                d="m 67.543,469.66 c 51.906,80.004 141.953,133.078 244.219,133.078 30.883,0 60.64,-4.879 88.59,-13.832 8.277,5.981 15.222,10.782 21.156,14.617 -34.16,12.891 -71.129,19.997 -109.746,19.997 -114.992,0 -215.5667,-62.625 -269.6097,-155.516 6.8868,0.672 15.3282,1.226 25.3907,1.656"
                style="fill:#d2d3d2;fill-opacity:1;fill-rule:nonzero;stroke:none"
                id="path20" />
            <g
                id="g32">
                <g
                    id="g34"
                    clip-path="url(#clipPath38)">
                    <path
                        d="m 612.48,183.586 c -0.039,0.066 -0.089,0.144 -0.148,0.227 -1.254,1.902 -4.238,4.64 -8.855,8.132 -2.239,1.696 -5.262,3.52 -8.762,5.633 -12.699,7.668 -31.891,19.262 -55.504,48.184 -0.672,0.816 -1.277,1.644 -1.82,2.465 -3.801,5.75 -5.067,12.32 -3.676,19 3.551,17.05 22.988,30.109 25.195,31.543 l 0.278,0.179 0.281,0.149 c 2.535,1.312 5.336,3.441 6.562,4.875 -2.234,1.39 -9.937,4.613 -34.293,5.804 l -3.504,0.164 c -83.324,3.918 -93.015,8.633 -96.613,14.079 -1.433,2.257 -5.801,9.136 12.285,34.46 4.309,6.043 57.805,83.872 63.004,92.145 11.125,17.715 11.453,25.328 10.754,26.535 -0.019,0.016 -0.668,0.457 -2.684,0.457 -4.074,0 -13.726,-1.812 -35.058,-12.644 -1.496,-0.762 -3.027,-1.133 -4.516,-1.133 -3.16,0 -6.129,1.668 -8.203,4.805 -5.234,7.933 -6.023,27.464 -6.965,61.312 -0.804,28.891 -1.804,64.844 -8.367,74.785 -0.363,0.551 -0.641,0.832 -0.687,0.903 -0.008,0.015 -0.012,0.023 -0.004,0.023 v 0 c -0.356,0.117 -0.766,0.172 -1.235,0.172 -10.172,0 -45.636,-26.684 -65.09,-41.32 -32.531,-24.477 -48.406,-35.633 -58.214,-35.633 -1.664,0 -3.153,0.32 -4.52,0.953 -6.191,2.859 -10.851,9.453 -15.355,15.824 -2.453,3.469 -7.02,9.93 -8.77,10.399 -0.035,-0.008 -3.555,-1.356 -9.094,-16.129 -6.656,-17.735 -13.015,-42.008 -18.629,-63.422 -11.824,-45.125 -16.718,-61.211 -25.203,-64.496 -1.05,-0.411 -2.136,-0.61 -3.222,-0.61 -1.696,0 -3.371,0.492 -4.868,1.461 -3.796,2.457 -9.015,9.461 -22.964,28.86 -13.399,18.636 -44.395,61.738 -54.754,63.714 -0.211,-0.472 -0.508,-1.328 -0.75,-2.781 -4.617,-27.683 -6.723,-40.32 -27.207,-42.094 -3.293,-0.285 -10.078,-0.316 -19.461,-0.363 -58.9729,-0.269 -91.5002,-3.394 -96.7151,-9.289 0.0899,-0.922 0.7774,-3.934 5.2813,-10.758 6.8203,-10.324 18.6484,-23.84 30.0937,-36.914 11.4375,-13.07 22.2422,-25.414 28.6094,-35.058 3.5469,-5.368 5.4453,-9.454 6.0078,-12.989 0.9492,-2.363 1.2812,-5.617 -0.0703,-9.101 -3.1133,-7.996 -13.8945,-14.324 -32.9414,-19.321 0.0625,-0.21 0.2148,-0.582 0.5703,-1.121 1.7109,-2.589 8.6484,-9.664 36.1445,-19.429 8.9961,-3.2 15.9848,-5.555 21.4418,-7.399 15.492,-5.23 20.168,-6.812 23.632,-12.062 1.344,-2.035 2.102,-4.172 3.063,-6.871 l 0.785,-2.192 c 4.406,-11.976 -8.879,-22.222 -22.945,-33.074 -8.328,-6.422 -17.7697,-13.703 -20.3869,-19.363 -3.3828,-7.328 -3.1094,-11.367 -2.8633,-12.692 l 0.3086,0.164 0.2265,-1.613 c 0.0313,-0.058 0.0664,-0.117 0.1133,-0.183 0.586,-0.887 2.5235,-3.075 7.9098,-4.29 2.481,-0.562 7.43,-1.21 13.164,-1.968 23.899,-3.16 68.379,-9.035 91.727,-27.485 4.309,-3.406 7.48,-6.687 9.688,-10.031 4.339,-6.57 4.984,-13.621 1.871,-20.344 L 165.5,34.1406 c -0.637,-5.2265 -0.516,-13.6797 1.75,-17.1133 0.586,-0.8828 1.02,-1.039 1.785,-1.0585 0.352,-0.0079 0.703,-0.0118 1.051,-0.0118 9.695,0 18.152,3.043 21.793,4.5743 l 54.16,115.0817 0.934,0.867 c 0.5,0.461 10.215,9.29 24.015,9.29 3.207,0 6.641,-0.481 10.227,-1.653 4.476,-1.199 58.269,-16.445 91.055,-65.1873 l 0.175,-0.2578 0.137,-0.2617 c 0.055,-0.0938 0.441,-0.7813 1.074,-1.7461 2.625,-3.9766 4.871,-5.6953 5.778,-6.0508 0.824,0.6875 4.472,4.6758 7.074,22.9961 -0.957,25.4066 0.344,56.5356 11.773,62.0316 3.981,1.91 8.844,2.48 13.231,2.48 4.828,0 9.078,-0.691 10.937,-1.047 6.274,-1.187 20.555,-9.582 41.625,-22.261 4.91,-2.954 9.524,-5.727 13.313,-7.934 9.203,-5.352 14.117,-7.551 16.687,-8.438 -0.004,0.582 -0.015,1.18 -0.019,1.707 -0.02,0.934 -0.035,1.903 -0.028,2.907 0.016,2.656 -0.16,6.433 -0.343,10.429 -0.965,20.575 -1.11,31.442 6.64,34.301 1.379,0.508 3.035,0.703 6.207,0.703 2.461,0 5.836,-0.117 10.703,-0.3 6.289,-0.235 14.383,-0.536 23.164,-0.536 17.59,0 37.942,1.211 52.071,6.602 5.301,2.023 17.304,6.601 20.011,9.332"
                        style="fill:url(#radialGradient46);fill-opacity:1;fill-rule:nonzero;stroke:none"
                        id="path48" />
                </g>
            </g>
        </g>
    </g>
</svg>
