<svg viewBox="0 0 468.293 468.293" preserveAspectRatio="xMidYMid" height="5em" xmlns="http://www.w3.org/2000/svg">
            <path style="fill:#64798A;" d="M468.293,84.009H0v312.195h193.507c2.301,12.37,19.607,21.988,40.639,21.988 c21.031,0,38.337-9.617,40.639-21.988h193.508V84.009z"/>
            <g>
              <path style="fill:#D5D6DB;" d="M21.701,74.722v307.967c67.01-32.827,145.435-32.827,212.445,0V74.722 C167.136,41.894,88.712,41.894,21.701,74.722z"/>
              <path style="fill:#D5D6DB;" d="M446.591,74.722v307.967c-67.01-32.827-145.435-32.827-212.445,0V74.722 C301.157,41.894,379.581,41.894,446.591,74.722z"/>
            </g>
            <path style="fill:#E1E6E9;" d="M423.249,90.288v274.129c-59.648-29.22-129.455-29.22-189.102,0V90.288 C293.794,61.068,363.601,61.068,423.249,90.288z"/>
            <g>
              <path style="fill:#D5D6DB;" d="M397.374,151.881c-0.921,0-1.857-0.201-2.741-0.634c-41.902-20.537-89.97-20.537-131.872,0 c-3.107,1.518-6.841,0.232-8.354-2.866c-1.518-3.091-0.238-6.835,2.86-8.354c45.396-22.232,97.463-22.232,142.86,0 c3.098,1.518,4.378,5.262,2.86,8.354C401.905,150.594,399.685,151.881,397.374,151.881z"/>
              <path style="fill:#D5D6DB;" d="M397.374,204.356c-0.921,0-1.857-0.201-2.741-0.634c-41.902-20.537-89.97-20.537-131.872,0 c-3.107,1.518-6.841,0.232-8.354-2.866c-1.518-3.091-0.238-6.835,2.86-8.354c45.396-22.232,97.463-22.232,142.86,0 c3.098,1.518,4.378,5.262,2.86,8.354C401.905,203.07,399.685,204.356,397.374,204.356z"/>
              <path style="fill:#D5D6DB;" d="M397.374,256.838c-0.921,0-1.857-0.201-2.741-0.634c-41.902-20.537-89.97-20.537-131.872,0 c-3.107,1.518-6.841,0.232-8.354-2.866c-1.518-3.091-0.238-6.835,2.86-8.354c45.396-22.232,97.463-22.232,142.86,0 c3.098,1.518,4.378,5.262,2.86,8.354C401.905,255.551,399.685,256.838,397.374,256.838z"/>
              <path style="fill:#D5D6DB;" d="M397.374,309.32c-0.921,0-1.857-0.201-2.741-0.634c-41.902-20.537-89.97-20.537-131.872,0 c-3.107,1.524-6.841,0.232-8.354-2.866c-1.518-3.091-0.238-6.835,2.86-8.354c45.396-22.232,97.463-22.232,142.86,0 c3.098,1.518,4.378,5.262,2.86,8.354C401.905,308.033,399.685,309.32,397.374,309.32z"/>
            </g>
            <path style="fill:#EBF0F3;" d="M45.044,90.288v274.129c59.648-29.22,129.455-29.22,189.102,0V90.288
              C174.499,61.068,104.692,61.068,45.044,90.288z"/>
            <g>
              <path style="fill:#D5D6DB;" d="M70.918,151.881c0.921,0,1.857-0.201,2.741-0.634c41.902-20.537,89.97-20.537,131.872,0 c3.107,1.518,6.841,0.232,8.354-2.866c1.518-3.091,0.238-6.835-2.86-8.354c-45.396-22.232-97.463-22.232-142.86,0 c-3.098,1.518-4.378,5.262-2.86,8.354C66.388,150.594,68.607,151.881,70.918,151.881z"/>
              <path style="fill:#D5D6DB;" d="M70.918,204.356c0.921,0,1.857-0.201,2.741-0.634c41.902-20.537,89.97-20.537,131.872,0 c3.107,1.518,6.841,0.232,8.354-2.866c1.518-3.091,0.238-6.835-2.86-8.354c-45.396-22.232-97.463-22.232-142.86,0 c-3.098,1.518-4.378,5.262-2.86,8.354C66.388,203.07,68.607,204.356,70.918,204.356z"/>
              <path style="fill:#D5D6DB;" d="M70.918,256.838c0.921,0,1.857-0.201,2.741-0.634c41.902-20.537,89.97-20.537,131.872,0 c3.107,1.518,6.841,0.232,8.354-2.866c1.518-3.091,0.238-6.835-2.86-8.354c-45.396-22.232-97.463-22.232-142.86,0 c-3.098,1.518-4.378,5.262-2.86,8.354C66.388,255.551,68.607,256.838,70.918,256.838z"/>
              <path style="fill:#D5D6DB;" d="M70.918,309.32c0.921,0,1.857-0.201,2.741-0.634c41.902-20.537,89.97-20.537,131.872,0 c3.107,1.524,6.841,0.232,8.354-2.866c1.518-3.091,0.238-6.835-2.86-8.354c-45.396-22.232-97.463-22.232-142.86,0 c-3.098,1.518-4.378,5.262-2.86,8.354C66.388,308.033,68.607,309.32,70.918,309.32z"/>
            </g>
            <path transform="translate(16,0) scale(1.1)" d="m392 80-24-24 8-8c6.78125-6.25 17.21875-6.25 24 0 6.25 6.78125 6.25 17.21875 0 24zm0 0" fill="#ED7161"/>
            <path transform="translate(16,0) scale(1.1)" d="m280.003906 144.003906 87.996094-88 24.003906 24.003906-88 87.996094zm0 0" fill="#FDC75B"/>
            <path transform="translate(16,0) scale(1.1)" d="m256 192 24-48 24 24zm0 0" fill="#aabece"/>
          </svg>