<svg id="be452e83-5912-4855-80f8-a79ecab91838" transform="scale(1.2) translate(2,-2)" preserveAspectRatio="xMidYMid" data-name="Layer 1" xmlns="http://www.w3.org/2000/svg" height="5em" viewBox="0 0 500 500">
    <path style="fill:#3A556A;" d="M376.28,288.516c-50.242,50.242-233.971,50.242-284.213,0c-23.18-23.18,0-131.127,0-131.127H376.28 C376.28,157.389,399.46,265.336,376.28,288.516z" />
    <path style="fill:#64798A;" d="M229.486,36.496L8.619,120.025c-11.42,4.319-11.42,20.473,0,24.792l220.866,83.529 c3.021,1.143,6.355,1.143,9.376,0l220.866-83.529c11.42-4.319,11.42-20.473,0-24.792L238.862,36.496 C235.841,35.354,232.507,35.354,229.486,36.496z" />
    <polygon style="fill:#3A556A;" points="55.077,307.601 28.616,306.028 38.527,153.788 230.96,119.565 237.386,145.281   63.836,174.787 " />
    <ellipse style="fill:#44C4A1;" cx="234.146" cy="132.421" rx="46.386" ry="19.169" />
    <polygon transform="translate(0,-70)" style="fill:#2D93BA;" points="22.152,415.779   31.895,432.653 51.382,432.653 61.124,415.779 70.867,432.653 83.277,432.653 63.419,327.254 19.858,327.254 0,432.653 12.41,432.653 " />
    <circle transform="translate(0,-70)" style="fill:#27A2DB;" cx="41.641" cy="317.752" r="32.624" />
    <path transform="translate(60,75)" style="fill:#EBF0F3;" d="M312.592,297.158c55.533-3.405,39.382,69.449,39.382,69.449h-86.784l23.04-60.078L312.592,297.158z" />
    <path transform="translate(60,75)" style="fill:#E1E6E9;" d="M312.592,297.158H14.74c-19.653,19.652-19.653,91.516,0,111.168l299.073,0 C294.16,388.674,291.583,302.902,312.592,297.158z" />
    <path transform="translate(60,75)" style="fill:#D5D6DB;" d="M297.852,352.019c0,22.879,4.913,45.758,14.74,55.584c0,0,25.671,18.872,27.396-55.584H297.852" />
    <polygon transform="translate(60,75)" style="fill:#E56353;" points="177.884,408 177.695, 396.217 177.695, 297.043 134.896, 297.043 134.896, 408 500.444" />
</svg>